<?xml version="1.0" standalone="no"?>
<!DOCTYPE svg PUBLIC "-//W3C//DTD SVG 20010904//EN"
 "http://www.w3.org/TR/2001/REC-SVG-20010904/DTD/svg10.dtd">
<svg version="1.0" xmlns="http://www.w3.org/2000/svg"
 width="512.000000pt" height="512.000000pt" viewBox="0 0 512.000000 512.000000"
 preserveAspectRatio="xMidYMid meet">
<metadata>
Created by potrace 1.14, written by Peter Selinger 2001-2017
</metadata>
<g transform="translate(0.000000,512.000000) scale(0.100000,-0.100000)"
fill="#000000" stroke="none">
<path d="M325 5106 c-148 -37 -271 -159 -311 -310 -21 -80 -20 -1318 1 -1401
43 -163 171 -284 335 -315 29 -5 187 -10 351 -10 l298 0 287 -206 c158 -113
299 -210 315 -216 36 -12 82 11 98 51 11 25 8 54 -22 200 l-34 171 266 0 c290
0 340 7 433 57 67 37 143 121 181 200 l32 68 3 660 c2 466 0 678 -8 720 -31
161 -167 300 -328 334 -79 16 -1829 14 -1897 -3z m1881 -171 c63 -19 126 -72
156 -133 l23 -47 0 -660 0 -660 -24 -48 c-27 -54 -67 -91 -131 -121 -42 -20
-67 -21 -393 -26 l-349 -5 -19 -24 c-24 -29 -24 -42 1 -171 11 -58 20 -106 20
-107 0 -2 -96 66 -212 150 l-213 152 -345 5 -345 5 -57 28 c-69 34 -113 84
-133 151 -23 76 -22 1269 1 1345 21 71 92 144 160 165 73 22 1785 23 1860 1z"/>
<path d="M340 4084 l0 -616 29 -29 29 -29 911 0 911 0 0 90 0 90 -855 0 -855
0 0 108 0 108 83 112 c45 61 85 111 88 112 4 0 50 -58 103 -129 158 -211 160
-211 357 85 78 118 146 213 150 212 4 -2 86 -99 183 -216 97 -117 187 -218
200 -224 31 -13 71 -4 94 23 14 16 244 423 398 706 l45 81 -76 42 c-42 23 -78
40 -79 39 -2 -2 -84 -149 -182 -326 -99 -178 -182 -322 -185 -320 -4 1 -86 98
-184 215 -120 144 -185 214 -202 218 -56 14 -72 -2 -223 -228 l-146 -217 -99
132 c-138 181 -166 186 -266 54 l-54 -72 -3 298 -2 297 -85 0 -85 0 0 -616z"/>
<path d="M2983 4808 l-313 -313 60 -60 60 -60 285 285 284 284 713 -80 713
-79 79 -713 80 -713 -164 -164 c-90 -90 -165 -163 -167 -162 -1 2 -36 232 -78
513 -41 280 -78 523 -81 541 -5 26 -2 32 16 38 38 12 92 68 116 120 47 100 21
234 -59 301 -137 115 -345 68 -413 -94 -23 -55 -20 -154 6 -207 23 -48 100
-122 134 -131 20 -5 26 -34 87 -445 l65 -440 -601 600 c-394 394 -609 602
-627 606 -15 4 -35 4 -45 1 -10 -3 -118 -106 -241 -229 l-222 -222 60 -60 60
-60 183 183 182 182 538 -538 537 -537 -97 -97 -98 -98 60 -60 60 -60 132 132
c73 73 134 130 136 128 2 -3 11 -54 20 -115 l16 -110 -85 -85 -84 -86 60 -59
60 -59 39 38 c48 46 39 67 77 -189 28 -195 46 -245 106 -304 52 -51 104 -74
184 -79 61 -4 80 -1 125 20 72 33 110 66 143 127 50 92 48 115 -44 545 l-83
387 82 83 c44 46 81 92 81 102 0 11 -39 368 -86 794 -60 539 -90 782 -100 798
-8 13 -25 27 -37 32 -19 9 -1529 180 -1582 180 -12 0 -135 -115 -332 -312z
m1424 -400 c29 -27 30 -76 2 -112 -43 -55 -139 -18 -139 54 0 68 87 105 137
58z m476 -1751 c45 -210 66 -332 62 -349 -9 -34 -50 -76 -82 -84 -52 -13 -108
13 -137 64 -4 7 -25 129 -46 270 l-38 257 81 83 c45 45 84 82 87 82 3 0 36
-145 73 -323z"/>
<path d="M2948 3150 c-544 -51 -1000 -414 -1173 -933 -49 -147 -67 -267 -68
-437 0 -279 76 -519 241 -765 64 -95 209 -247 302 -315 181 -135 411 -229 639
-261 104 -15 360 -6 456 15 164 37 322 101 455 186 l81 53 332 -330 c307 -306
336 -332 386 -348 206 -67 397 120 336 331 -16 58 -24 66 -356 399 l-339 341
34 64 c50 95 94 210 123 324 35 140 43 387 18 538 -84 506 -430 910 -918 1073
-171 57 -374 81 -549 65z m315 -185 c253 -44 467 -155 647 -335 102 -102 164
-188 228 -315 195 -391 153 -873 -108 -1225 -385 -518 -1089 -639 -1626 -280
-101 68 -246 213 -314 314 -339 507 -254 1162 205 1565 161 140 370 240 576
275 113 19 287 19 392 1z m1250 -2403 c245 -245 257 -260 257 -295 0 -52 -35
-87 -87 -87 -35 0 -50 12 -295 257 l-257 256 57 63 c31 34 59 63 62 63 3 1
121 -115 263 -257z"/>
<path d="M2893 2806 c-335 -64 -611 -276 -754 -580 -180 -384 -99 -852 199
-1154 492 -498 1327 -373 1645 246 118 228 147 486 84 732 -93 361 -375 643
-736 737 -120 31 -327 40 -438 19z m437 -204 c216 -71 405 -231 503 -427 103
-206 115 -480 31 -691 -150 -378 -540 -599 -934 -530 -500 88 -815 588 -675
1071 92 318 346 544 685 609 14 2 86 3 160 2 119 -3 146 -7 230 -34z"/>
<path d="M2987 2473 c-4 -3 -7 -41 -7 -84 0 -78 0 -79 -27 -85 -98 -21 -162
-69 -199 -148 -20 -43 -24 -67 -24 -151 0 -112 14 -155 69 -217 55 -63 107
-80 260 -86 124 -4 136 -7 158 -28 20 -20 23 -33 23 -93 0 -59 -4 -74 -24 -98
-23 -27 -28 -28 -133 -31 -123 -3 -150 6 -172 56 l-15 32 -83 0 -83 0 0 -27
c2 -103 100 -212 208 -229 l42 -7 0 -83 0 -84 90 0 90 0 0 85 0 85 28 0 c42 0
124 43 160 84 53 60 65 99 66 211 1 90 -2 105 -27 157 -56 113 -128 148 -308
148 -110 0 -120 2 -146 24 -26 23 -28 29 -28 101 0 72 2 78 28 101 26 22 36
24 143 24 109 0 116 -1 139 -25 14 -13 25 -31 25 -40 0 -12 15 -15 89 -15 l88
0 -8 45 c-12 62 -30 94 -82 142 -41 38 -71 52 -139 67 -28 6 -28 7 -28 91 l0
85 -83 0 c-46 0 -87 -3 -90 -7z"/>
<path d="M522 2347 c-489 -489 -522 -525 -522 -557 0 -33 51 -86 878 -912 823
-824 879 -878 912 -878 31 0 53 19 262 227 l228 228 -60 60 -60 60 -182 -182
-183 -181 -795 789 -794 789 482 483 482 482 -58 58 c-32 31 -60 57 -62 57 -3
0 -240 -235 -528 -523z"/>
<path d="M897 2082 l-277 -277 63 -63 62 -62 278 278 277 277 -63 63 -62 62
-278 -278z"/>
<path d="M1160 1815 l-275 -275 63 -62 62 -63 277 277 278 278 -60 60 c-33 33
-62 60 -65 60 -3 0 -129 -124 -280 -275z"/>
<path d="M1312 1437 l-162 -162 63 -63 62 -62 163 163 162 162 -63 63 -62 62
-163 -163z"/>
<path d="M1530 1125 l-115 -115 63 -62 62 -63 115 115 115 115 -63 63 -62 62
-115 -115z"/>
<path d="M1762 827 l-82 -82 63 -63 62 -62 85 85 84 85 -59 60 c-33 33 -62 60
-65 60 -3 0 -42 -37 -88 -83z"/>
</g>
</svg>
